<svg xmlns="http://www.w3.org/2000/svg" viewBox="0 0 364.13 119.52"><defs><style>.cls-1{fill:#4d4d4d;}.cls-2{fill:#03a696;}</style></defs><title>Logo DraviSalud</title><g id="Capa_2" data-name="Capa 2"><g id="Capa_1-2" data-name="Capa 1"><path class="cls-1" d="M183.27,71.45c0,4.59-2.15,7-6.73,7-4.39,0-6.73-2.44-6.73-7V69.1h-.21c-2.45,6.33-8.46,9.38-15.7,9.38-12.44,0-23.36-9.07-23.36-28.34,0-14.28,7.25-27.64,23-27.64,6.63,0,11.73,2.75,14.68,7.55h.21V9.86c0-4.9,3-7.45,7.44-7.45s7.45,2.55,7.45,7.45Zm-26-4.59c8.67,0,11.93-7.75,11.93-16.21,0-7.65-2.85-16.63-11.93-16.52-9.48,0-11.83,9.58-11.83,16.52C145.43,59.42,149.31,66.66,157.26,66.86Z"/><path class="cls-1" d="M195.91,29.44c0-4.49,3-6.94,6.73-6.94s6.73,2.45,6.73,6.94v5.71h.21c1.73-6.22,5.1-12.65,12.34-12.65,4.69,0,8.15,3.06,8.15,7.24,0,5.51-3.67,7.45-7.34,7.45h-2.65c-6,0-9.28,4.18-9.28,16.52V71c0,4-1.63,7.44-7.44,7.44S195.91,75,195.91,71Z"/><path class="cls-1" d="M284.23,62.78c0,6.22,1.52,7.65,1.52,10,0,3.37-3.16,5.71-6.72,5.71-6.43,0-8.57-4.07-8.78-8.66-5.81,6.42-12.54,8.66-20.39,8.66-8.46,0-16.83-5.81-16.83-15.19,0-12.34,9.39-15.81,20.81-17.13l9.07-1c3.57-.41,6.43-1.22,6.43-5.51S265,33.51,260,33.51c-11,0-11.32,8.16-17.24,8.16C239,41.67,236.4,39,236.4,36c0-5.91,8.36-13.46,23.66-13.46,14.27,0,24.17,4.59,24.17,15.3ZM269.34,52.07c-1.63,1.53-4.69,2-6.43,2.35l-5.4.81c-6.22.92-9.59,2.86-9.59,7.35,0,3.36,3.16,6.12,8.26,6.12,8.16,0,13.16-5.31,13.16-10.81Z"/><path class="cls-1" d="M292.79,34a15.25,15.25,0,0,1-.91-3.77c0-5.3,3.67-7.75,7.24-7.75,5.6,0,7,4.69,7.44,6.22l10,33.65h.21l10-33.65c.41-1.53,1.84-6.22,7.44-6.22,3.57,0,7.24,2.45,7.24,7.75a15.72,15.72,0,0,1-.91,3.77L326.44,73.18c-1.42,4-2.34,5.3-9.79,5.3s-8.36-1.32-9.78-5.3Z"/><path class="cls-1" d="M356.33,2a7.75,7.75,0,1,1-7.75,7.75A7.75,7.75,0,0,1,356.33,2Zm-7.45,27.94c0-4,1.63-7.44,7.45-7.44s7.44,3.47,7.44,7.44V71c0,4-1.63,7.44-7.44,7.44S348.88,75,348.88,71Z"/><path class="cls-2" d="M267,110.73v5.72a2.93,2.93,0,0,1-.62,2,2.09,2.09,0,0,1-1.62.68,2,2,0,0,1-1.58-.68,2.93,2.93,0,0,1-.61-2v-6.86a22.89,22.89,0,0,0-.11-2.52,2.65,2.65,0,0,0-.6-1.47,1.92,1.92,0,0,0-1.54-.58,2.74,2.74,0,0,0-2.78,1.45,10.2,10.2,0,0,0-.67,4.16v5.82a2.94,2.94,0,0,1-.61,2,2,2,0,0,1-1.6.69,2.07,2.07,0,0,1-1.6-.69,2.94,2.94,0,0,1-.62-2V104.14a2.7,2.7,0,0,1,.56-1.84,1.86,1.86,0,0,1,1.47-.63,2,2,0,0,1,1.48.59,2.22,2.22,0,0,1,.59,1.63v.41a7.45,7.45,0,0,1,2.39-2,6.33,6.33,0,0,1,2.84-.63,5.63,5.63,0,0,1,2.78.65,5.09,5.09,0,0,1,1.93,2,7.37,7.37,0,0,1,2.33-2,5.91,5.91,0,0,1,2.76-.64,6.32,6.32,0,0,1,3,.69,4.46,4.46,0,0,1,1.9,2,9.06,9.06,0,0,1,.55,3.67v8.4a2.93,2.93,0,0,1-.61,2,2.09,2.09,0,0,1-1.62.68,2.05,2.05,0,0,1-1.6-.69,2.89,2.89,0,0,1-.62-2v-7.24a16.37,16.37,0,0,0-.12-2.22,2.56,2.56,0,0,0-.64-1.4,2,2,0,0,0-1.58-.57,2.86,2.86,0,0,0-1.61.51,3.39,3.39,0,0,0-1.19,1.35A10.71,10.71,0,0,0,267,110.73Z"/><path class="cls-2" d="M298.11,111.47H289.7a5.74,5.74,0,0,0,.59,2.58,3.93,3.93,0,0,0,3.63,2.25,5.13,5.13,0,0,0,1.41-.18,4.74,4.74,0,0,0,1.24-.56,9.58,9.58,0,0,0,1.1-.83c.34-.3.77-.69,1.31-1.2a1.42,1.42,0,0,1,.95-.28,1.57,1.57,0,0,1,1.07.36,1.3,1.3,0,0,1,.41,1A2.87,2.87,0,0,1,301,116a5.29,5.29,0,0,1-1.38,1.49,7.65,7.65,0,0,1-2.32,1.19,9.75,9.75,0,0,1-3.2.48,8.55,8.55,0,0,1-6.44-2.37,8.76,8.76,0,0,1-2.3-6.41,10.68,10.68,0,0,1,.56-3.54,7.73,7.73,0,0,1,1.66-2.79,7,7,0,0,1,2.68-1.79,9.46,9.46,0,0,1,3.52-.62,8.37,8.37,0,0,1,4.33,1.06,7.05,7.05,0,0,1,2.7,2.75,7.21,7.21,0,0,1,.9,3.43c0,1.09-.31,1.79-.93,2.11A5.8,5.8,0,0,1,298.11,111.47ZM289.7,109h7.8a5.24,5.24,0,0,0-1.19-3.3,3.56,3.56,0,0,0-2.72-1.1,3.45,3.45,0,0,0-2.64,1.11A5.61,5.61,0,0,0,289.7,109Z"/><path class="cls-2" d="M321.91,116.7v-.43a11.52,11.52,0,0,1-1.71,1.62,6.62,6.62,0,0,1-1.83.94,6.73,6.73,0,0,1-2.15.33,6.3,6.3,0,0,1-2.86-.66,6.58,6.58,0,0,1-2.28-1.87,8.53,8.53,0,0,1-1.46-2.85,12.17,12.17,0,0,1-.49-3.54,9.23,9.23,0,0,1,2-6.29,6.55,6.55,0,0,1,5.18-2.25,6.92,6.92,0,0,1,3.14.64,8.71,8.71,0,0,1,2.49,2V98a3.23,3.23,0,0,1,.52-2,1.81,1.81,0,0,1,1.51-.68,1.87,1.87,0,0,1,1.5.62,2.8,2.8,0,0,1,.53,1.84v19a2.62,2.62,0,0,1-.57,1.84,2,2,0,0,1-2.92,0A2.65,2.65,0,0,1,321.91,116.7Zm-8.46-6.32a7.38,7.38,0,0,0,.54,3,4.16,4.16,0,0,0,1.49,1.85,3.69,3.69,0,0,0,2.06.62,3.81,3.81,0,0,0,2.07-.59,4,4,0,0,0,1.5-1.81,7.35,7.35,0,0,0,.56-3.05,7.15,7.15,0,0,0-.56-2.95,4.38,4.38,0,0,0-1.51-1.89,3.6,3.6,0,0,0-2.09-.66,3.56,3.56,0,0,0-2.11.67,4.33,4.33,0,0,0-1.44,1.92A7.71,7.71,0,0,0,313.45,110.38Z"/><path class="cls-2" d="M337.3,99.67a2.32,2.32,0,0,1-1.54-.55,2,2,0,0,1-.63-1.56,1.94,1.94,0,0,1,.65-1.51,2.27,2.27,0,0,1,3,0,1.9,1.9,0,0,1,.65,1.56,2,2,0,0,1-.63,1.55A2.2,2.2,0,0,1,337.3,99.67Zm2.13,4.44v12.43a2.77,2.77,0,0,1-.62,1.95,2,2,0,0,1-1.56.67,1.93,1.93,0,0,1-1.53-.68,2.83,2.83,0,0,1-.59-1.94v-12.3a2.77,2.77,0,0,1,.59-1.93,2,2,0,0,1,1.53-.64,2.06,2.06,0,0,1,1.56.64A2.52,2.52,0,0,1,339.43,104.11Z"/><path class="cls-2" d="M364.13,113.83a3.71,3.71,0,0,1-.48,1.72,5.94,5.94,0,0,1-1.46,1.74,7.78,7.78,0,0,1-2.48,1.33,10.49,10.49,0,0,1-3.38.5,8.23,8.23,0,0,1-6.22-2.32,8.61,8.61,0,0,1-2.23-6.23,10.3,10.3,0,0,1,1-4.68,7.36,7.36,0,0,1,3-3.14,10.07,10.07,0,0,1,7.7-.62,7.78,7.78,0,0,1,2.36,1.26A5.91,5.91,0,0,1,363.4,105a3.3,3.3,0,0,1,.51,1.63,1.73,1.73,0,0,1-.57,1.31,2,2,0,0,1-1.4.54,1.45,1.45,0,0,1-.89-.28,4.32,4.32,0,0,1-.79-.89,6.64,6.64,0,0,0-1.65-1.8,4.07,4.07,0,0,0-5.25.89,6.45,6.45,0,0,0-1.17,4.08,7.86,7.86,0,0,0,.3,2.23,5.12,5.12,0,0,0,.87,1.73,3.71,3.71,0,0,0,1.37,1.09,4.23,4.23,0,0,0,1.76.37,4,4,0,0,0,2.22-.6,5.36,5.36,0,0,0,1.63-1.83,4,4,0,0,1,.85-1.13,1.57,1.57,0,0,1,1.12-.41,1.66,1.66,0,0,1,1.3.59A1.92,1.92,0,0,1,364.13,113.83Z"/><ellipse class="cls-2" cx="33.72" cy="116.26" rx="3.22" ry="3.26"/><ellipse class="cls-2" cx="43.36" cy="116.26" rx="3.22" ry="3.26"/><rect class="cls-2" x="49.79" y="113" width="21.71" height="6.52" rx="3"/><path class="cls-2" d="M97.44,30.5H71.5V4.56A4.57,4.57,0,0,0,66.94,0H35.06A4.57,4.57,0,0,0,30.5,4.56V30.5H4.56A4.57,4.57,0,0,0,0,35.06V66.94A4.57,4.57,0,0,0,4.56,71.5H30.5V97.44A4.57,4.57,0,0,0,35.06,102H66.94a4.57,4.57,0,0,0,4.56-4.56V71.5H97.44A4.57,4.57,0,0,0,102,66.94V35.06A4.57,4.57,0,0,0,97.44,30.5Z"/></g></g></svg>